<?xml version="1.0" encoding="utf-8"?>
<!-- Generator: Adobe Illustrator 22.0.1, SVG Export Plug-In . SVG Version: 6.00 Build 0)  -->
<svg version="1.1" xmlns="http://www.w3.org/2000/svg" xmlns:xlink="http://www.w3.org/1999/xlink" x="0px" y="0px" viewBox="0 0 46 46" style="enable-background:new 0 0 46 46;" xml:space="preserve" width="46">
<style type="text/css">
	.st0{fill:#FFFFFF;}
	.st1{fill:url(#SVGID_1_);}
</style>
<g>
	<circle class="st0" cx="23" cy="23" r="23"/>
	
		<linearGradient id="SVGID_1_" gradientUnits="userSpaceOnUse" x1="-169.7602" y1="1" x2="-169.7602" y2="45" gradientTransform="matrix(-1 0 0 -1 -146.76 46.0001)">
		<stop  offset="0" style="stop-color:#BA0009"/>
		<stop  offset="1" style="stop-color:#D70009"/>
	</linearGradient>
	<circle class="st1" cx="23" cy="23" r="22"/>
	<g>
		<g>
			<g>
				<path class="st0" d="M27.5,28.4c-1.4,0-2.6,1.2-2.6,2.6c0,1.4,1.2,2.6,2.6,2.6c1.4,0,2.6-1.2,2.6-2.6
					C30,29.6,28.9,28.4,27.5,28.4z"/>
			</g>
		</g>
		<g>
			<g>
				<path class="st0" d="M32.1,16c-0.1,0-0.1,0-0.2,0H16l-0.3-1.7c-0.2-1.1-1.1-1.9-2.2-1.9h-2c-0.6,0-1,0.5-1,1s0.5,1,1,1h2
					c0.1,0,0.2,0.1,0.3,0.2l1.6,10.6c0.2,1.3,1.4,2.3,2.7,2.3h10.5c1.3,0,2.4-0.9,2.7-2.2l1.6-8.2C33,16.6,32.6,16.1,32.1,16z"/>
			</g>
		</g>
		<g>
			<g>
				<path class="st0" d="M21,30.9c-0.1-1.4-1.2-2.5-2.6-2.5c-1.5,0.1-2.6,1.3-2.5,2.7c0.1,1.4,1.2,2.5,2.6,2.5h0.1
					C20,33.6,21.1,32.4,21,30.9z"/>
			</g>
		</g>
	</g>
</g>
</svg>
